<svg width="365" height="93" viewBox="0 0 365 93" fill="none" xmlns="http://www.w3.org/2000/svg">
<path d="M57.4692 18C57.4692 8.05888 65.5281 0 75.4692 0C85.4104 0 93.4692 8.05888 93.4692 18C93.4692 27.9411 85.4104 36 75.4692 36C65.5281 36 57.4692 27.9411 57.4692 18Z" fill="#6841DA"/>
<path d="M76.5587 43.9771V56.9305C76.5587 62.6694 76.5555 66.729 76.2921 69.9005C76.0327 73.0242 75.5417 74.9265 74.7664 76.419C73.2561 79.3265 70.8855 81.6971 67.9781 83.2074C66.4856 83.9826 64.5833 84.4736 61.4596 84.733C58.288 84.9964 54.2285 84.9996 48.4896 84.9996H36.5383C30.7995 84.9996 26.7399 84.9964 23.5683 84.733C20.4446 84.4736 18.5423 83.9826 17.0498 83.2074C14.1424 81.6971 11.7718 79.3265 10.2615 76.419C9.4862 74.9265 8.99525 73.0242 8.73584 69.9005C8.47246 66.729 8.46924 62.6694 8.46924 56.9305V44.9793C8.46924 39.2404 8.47246 35.1808 8.73584 32.0092C8.99525 28.8855 9.4862 26.9832 10.2615 25.4907C11.7718 22.5833 14.1424 20.2127 17.0498 18.7024C18.5423 17.9271 20.4446 17.4362 23.5683 17.1768C26.7399 16.9134 30.7994 16.9102 36.5383 16.9102H49.4916C49.6072 14.1061 50.1669 11.4166 51.1022 8.91016L36.3604 8.91016C30.8395 8.91012 26.4477 8.9101 22.9062 9.2042C19.2789 9.50544 16.1867 10.1358 13.362 11.6031C8.99345 13.8724 5.43147 17.4344 3.16217 21.803C1.69486 24.6276 1.06452 27.7198 0.763286 31.3471C0.46918 34.8886 0.469207 39.2804 0.469239 44.8013V57.1084C0.469207 62.6294 0.46918 67.0211 0.763286 70.5626C1.06452 74.19 1.69486 77.2821 3.16217 80.1068C5.43147 84.4754 8.99345 88.0374 13.362 90.3067C16.1867 91.774 19.2789 92.4043 22.9062 92.7055C26.4477 92.9996 30.8393 92.9996 36.3602 92.9996H48.6674C54.1882 92.9996 58.5803 92.9996 62.1217 92.7055C65.749 92.4043 68.8412 91.774 71.6659 90.3067C76.0345 88.0374 79.5965 84.4754 81.8657 80.1068C83.3331 77.2821 83.9634 74.19 84.2646 70.5626C84.5587 67.0212 84.5587 62.6295 84.5587 57.1087V42.3665C82.0523 43.3018 79.3628 43.8615 76.5587 43.9771Z" fill="black"/>
<path d="M144.954 43.2911C144.954 45.7471 144.362 48.0495 143.178 50.1985C142.038 52.3475 140.218 54.0799 137.718 55.3956C135.262 56.7113 132.148 57.3692 128.376 57.3692H120.679V74.9997H111.469V29.0814H128.376C131.929 29.0814 134.955 29.6954 137.455 30.9234C139.954 32.1514 141.818 33.8398 143.046 35.9888C144.318 38.1378 144.954 40.5719 144.954 43.2911ZM127.981 49.9354C130.525 49.9354 132.411 49.3653 133.639 48.225C134.867 47.0408 135.481 45.3962 135.481 43.2911C135.481 38.8176 132.981 36.5809 127.981 36.5809H120.679V49.9354H127.981Z" fill="black"/>
<path d="M158.072 44.2121C159.256 42.2823 160.791 40.7693 162.677 39.6728C164.606 38.5764 166.799 38.0282 169.255 38.0282V47.6987H166.821C163.927 47.6987 161.734 48.3785 160.243 49.738C158.795 51.0976 158.072 53.4659 158.072 56.8429V74.9997H148.862V38.5545H158.072V44.2121Z" fill="black"/>
<path d="M189.01 75.5918C185.502 75.5918 182.344 74.8243 179.537 73.2893C176.73 71.7105 174.516 69.4957 172.893 66.645C171.314 63.7943 170.525 60.505 170.525 56.7771C170.525 53.0493 171.336 49.76 172.959 46.9093C174.625 44.0586 176.884 41.8657 179.735 40.3307C182.585 38.7518 185.765 37.9624 189.274 37.9624C192.782 37.9624 195.962 38.7518 198.813 40.3307C201.663 41.8657 203.9 44.0586 205.523 46.9093C207.189 49.76 208.023 53.0493 208.023 56.7771C208.023 60.505 207.167 63.7943 205.457 66.645C203.79 69.4957 201.51 71.7105 198.615 73.2893C195.764 74.8243 192.563 75.5918 189.01 75.5918ZM189.01 67.566C190.677 67.566 192.234 67.1712 193.681 66.3818C195.172 65.5485 196.357 64.3205 197.234 62.6978C198.111 61.0751 198.549 59.1015 198.549 56.7771C198.549 53.3124 197.628 50.659 195.786 48.817C193.988 46.9312 191.773 45.9883 189.142 45.9883C186.511 45.9883 184.296 46.9312 182.498 48.817C180.743 50.659 179.866 53.3124 179.866 56.7771C179.866 60.2418 180.721 62.9171 182.432 64.803C184.186 66.645 186.379 67.566 189.01 67.566Z" fill="black"/>
<path d="M209.779 56.6455C209.779 52.9615 210.502 49.6942 211.95 46.8435C213.441 43.9928 215.458 41.7999 218.002 40.2649C220.546 38.7299 223.374 37.9624 226.488 37.9624C228.857 37.9624 231.115 38.4887 233.264 39.5413C235.413 40.55 237.124 41.9096 238.395 43.62V26.3184H247.737V74.9997H238.395V69.6053C237.255 71.4035 235.654 72.8507 233.593 73.9472C231.532 75.0436 229.142 75.5918 226.422 75.5918C223.352 75.5918 220.546 74.8024 218.002 73.2235C215.458 71.6447 213.441 69.4299 211.95 66.5792C210.502 63.6846 209.779 60.3734 209.779 56.6455ZM238.461 56.7771C238.461 54.5404 238.023 52.6326 237.146 51.0538C236.268 49.431 235.084 48.2031 233.593 47.3698C232.102 46.4926 230.501 46.0541 228.791 46.0541C227.08 46.0541 225.501 46.4707 224.054 47.304C222.607 48.1373 221.423 49.3653 220.502 50.988C219.625 52.5668 219.186 54.4527 219.186 56.6455C219.186 58.8384 219.625 60.7681 220.502 62.4347C221.423 64.0574 222.607 65.3073 224.054 66.1845C225.545 67.0616 227.124 67.5002 228.791 67.5002C230.501 67.5002 232.102 67.0835 233.593 66.2502C235.084 65.3731 236.268 64.1451 237.146 62.5662C238.023 60.9435 238.461 59.0138 238.461 56.7771Z" fill="black"/>
<path d="M288.507 38.5545V74.9997H279.231V70.3947C278.047 71.9736 276.49 73.2235 274.56 74.1445C272.674 75.0217 270.613 75.4602 268.376 75.4602C265.526 75.4602 263.004 74.8682 260.811 73.684C258.618 72.456 256.886 70.6798 255.614 68.3554C254.386 65.9871 253.772 63.1802 253.772 59.9348V38.5545H262.982V58.6191C262.982 61.5137 263.705 63.7504 265.153 65.3292C266.6 66.8642 268.574 67.6317 271.073 67.6317C273.617 67.6317 275.613 66.8642 277.06 65.3292C278.507 63.7504 279.231 61.5137 279.231 58.6191V38.5545H288.507Z" fill="black"/>
<path d="M292.594 56.7771C292.594 53.0054 293.362 49.7161 294.897 46.9093C296.432 44.0586 298.559 41.8657 301.278 40.3307C303.997 38.7518 307.111 37.9624 310.619 37.9624C315.137 37.9624 318.864 39.1027 321.803 41.3833C324.785 43.62 326.781 46.7777 327.789 50.8564H317.856C317.329 49.2775 316.43 48.0496 315.159 47.1724C313.931 46.2514 312.396 45.7909 310.554 45.7909C307.922 45.7909 305.839 46.7558 304.304 48.6855C302.769 50.5713 302.001 53.2685 302.001 56.7771C302.001 60.2418 302.769 62.939 304.304 64.8687C305.839 66.7546 307.922 67.6975 310.554 67.6975C314.281 67.6975 316.715 66.031 317.856 62.6978H327.789C326.781 66.645 324.785 69.7807 321.803 72.1052C318.821 74.4296 315.093 75.5918 310.619 75.5918C307.111 75.5918 303.997 74.8243 301.278 73.2893C298.559 71.7105 296.432 69.5176 294.897 66.7107C293.362 63.86 292.594 60.5488 292.594 56.7771Z" fill="black"/>
<path d="M342.628 46.1198V63.7504C342.628 64.9784 342.913 65.8775 343.483 66.4476C344.097 66.9739 345.106 67.237 346.51 67.237H350.786V74.9997H344.996C337.234 74.9997 333.352 71.228 333.352 63.6846V46.1198H329.011V38.5545H333.352V29.5419H342.628V38.5545H350.786V46.1198H342.628Z" fill="black"/>
<path d="M358.857 75.4607C357.191 75.4607 355.809 74.9564 354.713 73.9476C353.66 72.8951 353.134 71.6013 353.134 70.0663C353.134 68.5313 353.66 67.2594 354.713 66.2507C355.809 65.1982 357.191 64.6719 358.857 64.6719C360.48 64.6719 361.818 65.1982 362.87 66.2507C363.923 67.2594 364.449 68.5313 364.449 70.0663C364.449 71.6013 363.923 72.8951 362.87 73.9476C361.818 74.9564 360.48 75.4607 358.857 75.4607Z" fill="#6841DA"/>
</svg>
